<?xml version="1.0" encoding="UTF-8"?>
<!-- Generator: visioncortex VTracer -->
<svg id="svg" version="1.1" xmlns="http://www.w3.org/2000/svg" viewBox="0 0 2048 2048"><path d="M0,0 L3,0 L3,2 L2,2 L2,8 L1,8 L1,14 L0,14 L0,24 L-1,24 L-1,32 L-2,32 L-2,40 L-3,40 L-3,51 L-4,51 L-4,60 L-5,60 L-5,67 L-6,67 L-6,75 L-7,75 L-7,83 L-8,83 L-8,95 L-9,95 L-9,103 L-10,103 L-10,111 L-11,111 L-11,118 L-12,118 L-12,126 L-13,126 L-13,134 L-14,134 L-14,146 L-15,146 L-15,152 L-16,152 L-16,160 L-17,160 L-17,168 L-18,168 L-18,176 L-19,176 L-19,184 L-20,184 L-20,192 L-21,192 L-21,200 L-22,200 L-22,208 L-23,208 L-23,216 L-24,216 L-24,224 L-25,224 L-25,232 L-26,232 L-26,244 L-27,244 L-27,250 L-28,250 L-28,258 L-29,258 L-29,267 L-30,267 L-30,275 L-31,275 L-31,284 L-32,284 L-32,291 L-33,291 L-33,299 L-34,299 L-34,311 L-35,311 L-35,318 L-36,318 L-36,326 L-37,326 L-37,336 L-38,336 L-38,342 L-39,342 L-39,348 L-40,348 L-40,356 L-41,356 L-41,362 L-40,362 L-40,361 L-38,361 L-38,360 L-37,360 L-37,359 L-35,359 L-35,358 L-34,358 L-34,357 L-32,357 L-32,356 L-30,356 L-30,355 L-29,355 L-29,354 L-27,354 L-27,353 L-25,353 L-25,352 L-23,352 L-23,351 L-21,351 L-21,350 L-18,350 L-18,349 L-16,349 L-16,348 L-14,348 L-14,347 L-11,347 L-11,346 L-9,346 L-9,345 L-6,345 L-6,344 L-3,344 L-3,343 L0,343 L0,342 L3,342 L3,341 L6,341 L6,340 L9,340 L9,339 L12,339 L12,338 L16,338 L16,337 L19,337 L19,336 L23,336 L23,335 L27,335 L27,334 L31,334 L31,333 L35,333 L35,332 L41,332 L41,331 L44,331 L44,330 L50,330 L50,329 L55,329 L55,328 L58,328 L58,327 L64,327 L64,326 L69,326 L69,325 L74,325 L74,324 L79,324 L79,323 L83,323 L83,322 L87,322 L87,321 L91,321 L91,320 L95,320 L95,319 L98,319 L98,318 L101,318 L101,317 L103,317 L103,316 L106,316 L106,315 L108,315 L108,314 L110,314 L110,313 L112,313 L112,312 L114,312 L114,311 L116,311 L116,310 L118,310 L118,309 L119,309 L119,308 L121,308 L121,307 L122,307 L122,306 L123,306 L123,305 L125,305 L125,304 L126,304 L126,303 L127,303 L127,302 L128,302 L128,301 L129,301 L129,300 L130,300 L130,299 L131,299 L131,298 L132,298 L132,297 L133,297 L133,296 L134,296 L134,295 L135,295 L135,294 L136,294 L136,292 L137,292 L137,291 L138,291 L138,289 L139,289 L139,288 L140,288 L140,286 L141,286 L141,285 L142,285 L142,283 L143,283 L143,281 L144,281 L144,279 L145,279 L145,277 L146,277 L146,274 L147,274 L147,272 L148,272 L148,269 L149,269 L149,267 L150,267 L150,262 L151,262 L151,254 L152,254 L152,249 L153,249 L153,240 L154,240 L154,232 L155,232 L155,224 L156,224 L156,218 L157,218 L157,210 L158,210 L158,202 L159,202 L159,194 L160,194 L160,184 L161,184 L161,176 L162,176 L162,168 L163,168 L163,162 L164,162 L164,150 L165,150 L165,146 L166,146 L166,137 L167,137 L167,126 L168,126 L168,122 L171,122 L171,121 L178,121 L178,120 L207,120 L207,121 L213,121 L213,122 L216,122 L216,123 L220,123 L220,124 L223,124 L223,125 L226,125 L226,126 L228,126 L228,127 L231,127 L231,128 L233,128 L233,129 L235,129 L235,130 L237,130 L237,131 L239,131 L239,132 L240,132 L240,133 L242,133 L242,134 L243,134 L243,135 L245,135 L245,136 L246,136 L246,137 L247,137 L247,138 L248,138 L248,139 L250,139 L250,140 L251,140 L251,141 L252,141 L252,142 L253,142 L253,143 L254,143 L254,144 L255,144 L255,145 L256,145 L256,146 L257,146 L257,148 L258,148 L258,149 L259,149 L259,150 L260,150 L260,151 L261,151 L261,153 L262,153 L262,154 L263,154 L263,156 L264,156 L264,157 L265,157 L265,159 L266,159 L266,161 L267,161 L267,163 L268,163 L268,165 L269,165 L269,167 L270,167 L270,170 L271,170 L271,173 L272,173 L272,178 L273,178 L273,182 L274,182 L274,190 L275,190 L275,210 L274,210 L274,214 L273,214 L273,222 L272,222 L272,230 L271,230 L271,238 L270,238 L270,246 L269,246 L269,256 L268,256 L268,264 L267,264 L267,274 L266,274 L266,280 L265,280 L265,288 L264,288 L264,296 L263,296 L263,306 L262,306 L262,316 L261,316 L261,320 L260,320 L260,332 L259,332 L259,338 L258,338 L258,347 L257,347 L257,355 L256,355 L256,363 L255,363 L255,371 L254,371 L254,381 L253,381 L253,387 L252,387 L252,398 L251,398 L251,405 L250,405 L250,412 L249,412 L249,419 L248,419 L248,427 L247,427 L247,435 L246,435 L246,443 L245,443 L245,451 L244,451 L244,460 L243,460 L243,467 L242,467 L242,477 L241,477 L241,484 L240,484 L240,493 L239,493 L239,500 L238,500 L238,510 L237,510 L237,518 L236,518 L236,526 L235,526 L235,534 L234,534 L234,542 L233,542 L233,549 L232,549 L232,558 L231,558 L231,566 L233,566 L233,567 L235,567 L235,568 L239,568 L239,569 L245,569 L245,570 L261,570 L261,569 L268,569 L268,568 L272,568 L272,567 L276,567 L276,566 L280,566 L280,565 L283,565 L283,564 L286,564 L286,563 L288,563 L288,562 L291,562 L291,561 L293,561 L293,560 L296,560 L296,559 L298,559 L298,558 L300,558 L300,557 L302,557 L302,556 L303,556 L303,555 L305,555 L305,554 L307,554 L307,553 L308,553 L308,552 L310,552 L310,551 L311,551 L311,550 L313,550 L313,549 L314,549 L314,548 L316,548 L316,547 L317,547 L317,546 L318,546 L318,545 L320,545 L320,544 L321,544 L321,543 L322,543 L322,542 L323,542 L323,541 L325,541 L325,540 L326,540 L326,539 L327,539 L327,538 L328,538 L328,537 L329,537 L329,536 L330,536 L330,535 L331,535 L331,534 L332,534 L332,533 L333,533 L333,532 L334,532 L334,531 L335,531 L335,530 L336,530 L336,529 L337,529 L337,528 L338,528 L338,527 L339,527 L339,526 L340,526 L340,525 L341,525 L341,523 L342,523 L342,522 L343,522 L343,521 L344,521 L344,520 L345,520 L345,518 L346,518 L346,517 L347,517 L347,516 L348,516 L348,514 L349,514 L349,513 L350,513 L350,512 L351,512 L351,510 L352,510 L352,509 L353,509 L353,507 L354,507 L354,506 L355,506 L355,504 L356,504 L356,503 L357,503 L357,501 L358,501 L358,499 L359,499 L359,498 L360,498 L360,496 L361,496 L361,494 L362,494 L362,492 L363,492 L363,490 L364,490 L364,488 L365,488 L365,486 L366,486 L366,484 L367,484 L367,482 L368,482 L368,480 L369,480 L369,477 L370,477 L370,475 L371,475 L371,473 L372,473 L372,470 L373,470 L373,467 L374,467 L374,465 L375,465 L375,462 L376,462 L376,459 L377,459 L377,455 L378,455 L378,452 L379,452 L379,448 L380,448 L380,444 L381,444 L381,442 L382,442 L382,436 L383,436 L383,432 L384,432 L384,427 L385,427 L385,420 L386,420 L386,414 L387,414 L387,406 L388,406 L388,358 L387,358 L387,351 L386,351 L386,344 L385,344 L385,335 L384,335 L384,330 L383,330 L383,324 L382,324 L382,320 L381,320 L381,316 L380,316 L380,312 L379,312 L379,309 L378,309 L378,306 L377,306 L377,302 L376,302 L376,300 L375,300 L375,297 L376,297 L376,299 L377,299 L377,301 L378,301 L378,303 L379,303 L379,305 L380,305 L380,307 L381,307 L381,309 L382,309 L382,311 L383,311 L383,313 L384,313 L384,315 L385,315 L385,317 L386,317 L386,319 L387,319 L387,321 L388,321 L388,323 L389,323 L389,325 L390,325 L390,327 L391,327 L391,330 L392,330 L392,332 L393,332 L393,334 L394,334 L394,337 L395,337 L395,340 L396,340 L396,342 L397,342 L397,345 L398,345 L398,348 L399,348 L399,351 L400,351 L400,354 L401,354 L401,357 L402,357 L402,360 L403,360 L403,363 L404,363 L404,367 L405,367 L405,371 L406,371 L406,376 L407,376 L407,379 L408,379 L408,384 L409,384 L409,390 L410,390 L410,395 L411,395 L411,404 L412,404 L412,412 L413,412 L413,458 L412,458 L412,469 L411,469 L411,475 L410,475 L410,482 L409,482 L409,486 L408,486 L408,492 L407,492 L407,495 L406,495 L406,500 L405,500 L405,504 L404,504 L404,507 L403,507 L403,511 L402,511 L402,514 L401,514 L401,517 L400,517 L400,520 L399,520 L399,523 L398,523 L398,526 L397,526 L397,529 L396,529 L396,532 L395,532 L395,534 L394,534 L394,537 L393,537 L393,539 L392,539 L392,541 L391,541 L391,543 L390,543 L390,546 L389,546 L389,548 L388,548 L388,550 L387,550 L387,552 L386,552 L386,554 L385,554 L385,556 L384,556 L384,558 L383,558 L383,560 L382,560 L382,562 L381,562 L381,564 L380,564 L380,566 L379,566 L379,568 L378,568 L378,569 L377,569 L377,571 L376,571 L376,573 L375,573 L375,574 L374,574 L374,576 L373,576 L373,578 L372,578 L372,579 L371,579 L371,581 L370,581 L370,582 L369,582 L369,584 L368,584 L368,585 L367,585 L367,587 L366,587 L366,588 L365,588 L365,590 L364,590 L364,591 L363,591 L363,593 L362,593 L362,594 L361,594 L361,596 L360,596 L360,597 L359,597 L359,598 L358,598 L358,600 L357,600 L357,601 L356,601 L356,602 L355,602 L355,604 L354,604 L354,605 L353,605 L353,606 L352,606 L352,607 L351,607 L351,609 L350,609 L350,610 L349,610 L349,611 L348,611 L348,612 L347,612 L347,613 L346,613 L346,614 L345,614 L345,616 L344,616 L344,617 L343,617 L343,618 L342,618 L342,619 L341,619 L341,620 L340,620 L340,621 L339,621 L339,622 L338,622 L338,623 L337,623 L337,624 L336,624 L336,625 L335,625 L335,626 L334,626 L334,627 L333,627 L333,628 L332,628 L332,629 L331,629 L331,630 L330,630 L330,631 L329,631 L329,632 L328,632 L328,633 L327,633 L327,634 L326,634 L326,635 L325,635 L325,636 L324,636 L324,637 L323,637 L323,638 L321,638 L321,639 L320,639 L320,640 L319,640 L319,641 L318,641 L318,642 L317,642 L317,643 L316,643 L316,644 L315,644 L315,645 L313,645 L313,646 L312,646 L312,647 L311,647 L311,648 L310,648 L310,649 L309,649 L309,650 L307,650 L307,651 L306,651 L306,652 L305,652 L305,653 L304,653 L304,654 L302,654 L302,655 L301,655 L301,656 L300,656 L300,657 L298,657 L298,658 L297,658 L297,659 L295,659 L295,660 L294,660 L294,661 L292,661 L292,662 L291,662 L291,663 L289,663 L289,664 L288,664 L288,665 L286,665 L286,666 L285,666 L285,667 L283,667 L283,668 L282,668 L282,669 L280,669 L280,670 L279,670 L279,671 L277,671 L277,672 L275,672 L275,673 L273,673 L273,674 L272,674 L272,675 L270,675 L270,676 L268,676 L268,677 L266,677 L266,678 L264,678 L264,679 L262,679 L262,680 L261,680 L261,681 L259,681 L259,682 L257,682 L257,683 L255,683 L255,684 L253,684 L253,685 L250,685 L250,686 L248,686 L248,687 L246,687 L246,688 L244,688 L244,689 L241,689 L241,690 L239,690 L239,691 L237,691 L237,692 L234,692 L234,693 L232,693 L232,694 L229,694 L229,695 L226,695 L226,696 L224,696 L224,697 L221,697 L221,698 L218,698 L218,699 L215,699 L215,700 L212,700 L212,701 L208,701 L208,702 L205,702 L205,703 L201,703 L201,704 L197,704 L197,705 L193,705 L193,706 L189,706 L189,707 L184,707 L184,708 L179,708 L179,709 L173,709 L173,710 L167,710 L167,711 L159,711 L159,712 L150,712 L150,713 L98,713 L98,712 L88,712 L88,710 L89,710 L89,699 L90,699 L90,691 L91,691 L91,683 L92,683 L92,675 L93,675 L93,667 L94,667 L94,659 L95,659 L95,651 L96,651 L96,644 L97,644 L97,636 L98,636 L98,631 L99,631 L99,623 L100,623 L100,612 L101,612 L101,603 L102,603 L102,594 L103,594 L103,586 L104,586 L104,578 L105,578 L105,570 L106,570 L106,562 L107,562 L107,555 L108,555 L108,548 L109,548 L109,536 L110,536 L110,528 L111,528 L111,520 L112,520 L112,514 L113,514 L113,506 L114,506 L114,498 L115,498 L115,488 L116,488 L116,484 L117,484 L117,474 L118,474 L118,462 L119,462 L119,454 L120,454 L120,446 L121,446 L121,438 L122,438 L122,429 L123,429 L123,421 L124,421 L124,419 L122,419 L122,420 L121,420 L121,421 L119,421 L119,422 L117,422 L117,423 L115,423 L115,424 L113,424 L113,425 L111,425 L111,426 L108,426 L108,427 L106,427 L106,428 L103,428 L103,429 L99,429 L99,430 L96,430 L96,431 L93,431 L93,432 L90,432 L90,433 L85,433 L85,434 L81,434 L81,435 L77,435 L77,436 L73,436 L73,437 L67,437 L67,438 L63,438 L63,439 L57,439 L57,440 L52,440 L52,441 L48,441 L48,442 L44,442 L44,443 L40,443 L40,444 L36,444 L36,445 L33,445 L33,446 L29,446 L29,447 L26,447 L26,448 L24,448 L24,449 L21,449 L21,450 L19,450 L19,451 L16,451 L16,452 L14,452 L14,453 L12,453 L12,454 L10,454 L10,455 L8,455 L8,456 L6,456 L6,457 L4,457 L4,458 L2,458 L2,459 L1,459 L1,460 L-1,460 L-1,461 L-3,461 L-3,462 L-4,462 L-4,463 L-6,463 L-6,464 L-7,464 L-7,465 L-9,465 L-9,466 L-10,466 L-10,467 L-11,467 L-11,468 L-13,468 L-13,469 L-14,469 L-14,470 L-15,470 L-15,471 L-16,471 L-16,472 L-18,472 L-18,473 L-19,473 L-19,474 L-20,474 L-20,475 L-21,475 L-21,476 L-22,476 L-22,477 L-23,477 L-23,478 L-24,478 L-24,479 L-26,479 L-26,480 L-27,480 L-27,481 L-28,481 L-28,482 L-29,482 L-29,483 L-30,483 L-30,484 L-31,484 L-31,485 L-32,485 L-32,487 L-33,487 L-33,488 L-34,488 L-34,489 L-35,489 L-35,490 L-36,490 L-36,491 L-37,491 L-37,493 L-38,493 L-38,494 L-39,494 L-39,495 L-40,495 L-40,497 L-41,497 L-41,498 L-42,498 L-42,499 L-43,499 L-43,501 L-44,501 L-44,502 L-45,502 L-45,504 L-46,504 L-46,505 L-47,505 L-47,507 L-48,507 L-48,508 L-49,508 L-49,510 L-50,510 L-50,512 L-51,512 L-51,514 L-52,514 L-52,516 L-53,516 L-53,518 L-54,518 L-54,520 L-55,520 L-55,522 L-56,522 L-56,524 L-57,524 L-57,526 L-58,526 L-58,528 L-59,528 L-59,531 L-60,531 L-60,534 L-61,534 L-61,536 L-62,536 L-62,539 L-63,539 L-63,543 L-64,543 L-64,549 L-65,549 L-65,552 L-66,552 L-66,560 L-67,560 L-67,566 L-68,566 L-68,574 L-69,574 L-69,582 L-70,582 L-70,590 L-71,590 L-71,598 L-72,598 L-72,608 L-73,608 L-73,618 L-74,618 L-74,624 L-75,624 L-75,632 L-76,632 L-76,640 L-77,640 L-77,650 L-79,650 L-79,649 L-80,649 L-80,648 L-81,648 L-81,647 L-83,647 L-83,646 L-84,646 L-84,645 L-85,645 L-85,644 L-86,644 L-86,643 L-87,643 L-87,642 L-89,642 L-89,641 L-90,641 L-90,640 L-91,640 L-91,639 L-92,639 L-92,638 L-93,638 L-93,637 L-94,637 L-94,636 L-96,636 L-96,635 L-97,635 L-97,634 L-98,634 L-98,633 L-99,633 L-99,632 L-100,632 L-100,631 L-101,631 L-101,630 L-102,630 L-102,629 L-103,629 L-103,628 L-104,628 L-104,627 L-105,627 L-105,626 L-106,626 L-106,625 L-107,625 L-107,624 L-108,624 L-108,623 L-109,623 L-109,622 L-110,622 L-110,621 L-111,621 L-111,620 L-112,620 L-112,619 L-113,619 L-113,618 L-114,618 L-114,617 L-115,617 L-115,616 L-116,616 L-116,615 L-117,615 L-117,614 L-118,614 L-118,613 L-119,613 L-119,611 L-120,611 L-120,610 L-121,610 L-121,609 L-122,609 L-122,608 L-123,608 L-123,607 L-124,607 L-124,606 L-125,606 L-125,605 L-126,605 L-126,603 L-127,603 L-127,602 L-128,602 L-128,601 L-129,601 L-129,600 L-130,600 L-130,599 L-131,599 L-131,597 L-132,597 L-132,596 L-133,596 L-133,595 L-134,595 L-134,593 L-135,593 L-135,592 L-136,592 L-136,591 L-137,591 L-137,589 L-138,589 L-138,588 L-139,588 L-139,587 L-140,587 L-140,585 L-141,585 L-141,584 L-142,584 L-142,582 L-143,582 L-143,581 L-144,581 L-144,579 L-145,579 L-145,578 L-146,578 L-146,576 L-147,576 L-147,575 L-148,575 L-148,573 L-149,573 L-149,572 L-150,572 L-150,570 L-151,570 L-151,568 L-152,568 L-152,567 L-153,567 L-153,565 L-154,565 L-154,564 L-155,564 L-155,562 L-156,562 L-156,560 L-157,560 L-157,559 L-158,559 L-158,557 L-159,557 L-159,555 L-160,555 L-160,553 L-161,553 L-161,551 L-162,551 L-162,549 L-163,549 L-163,548 L-164,548 L-164,546 L-165,546 L-165,544 L-166,544 L-166,541 L-167,541 L-167,540 L-168,540 L-168,537 L-169,537 L-169,535 L-170,535 L-170,533 L-171,533 L-171,531 L-172,531 L-172,528 L-173,528 L-173,526 L-174,526 L-174,524 L-175,524 L-175,521 L-176,521 L-176,519 L-177,519 L-177,516 L-178,516 L-178,513 L-179,513 L-179,511 L-180,511 L-180,508 L-181,508 L-181,494 L-180,494 L-180,486 L-179,486 L-179,478 L-178,478 L-178,470 L-177,470 L-177,462 L-176,462 L-176,454 L-175,454 L-175,446 L-174,446 L-174,438 L-173,438 L-173,430 L-172,430 L-172,424 L-171,424 L-171,416 L-170,416 L-170,408 L-169,408 L-169,400 L-168,400 L-168,390 L-167,390 L-167,380 L-166,380 L-166,371 L-165,371 L-165,364 L-164,364 L-164,358 L-163,358 L-163,350 L-162,350 L-162,341 L-161,341 L-161,331 L-160,331 L-160,324 L-159,324 L-159,315 L-158,315 L-158,308 L-157,308 L-157,302 L-156,302 L-156,290 L-155,290 L-155,283 L-154,283 L-154,276 L-153,276 L-153,267 L-152,267 L-152,256 L-151,256 L-151,248 L-150,248 L-150,241 L-149,241 L-149,233 L-148,233 L-148,224 L-147,224 L-147,218 L-146,218 L-146,210 L-145,210 L-145,198 L-144,198 L-144,190 L-143,190 L-143,182 L-142,182 L-142,174 L-141,174 L-141,166 L-140,166 L-140,158 L-139,158 L-139,152 L-138,152 L-138,147 L-137,147 L-137,141 L-136,141 L-136,138 L-135,138 L-135,133 L-134,133 L-134,129 L-133,129 L-133,126 L-132,126 L-132,123 L-131,123 L-131,120 L-130,120 L-130,118 L-129,118 L-129,115 L-128,115 L-128,112 L-127,112 L-127,110 L-126,110 L-126,107 L-125,107 L-125,105 L-124,105 L-124,103 L-123,103 L-123,101 L-122,101 L-122,99 L-121,99 L-121,97 L-120,97 L-120,95 L-119,95 L-119,93 L-118,93 L-118,91 L-117,91 L-117,89 L-116,89 L-116,88 L-115,88 L-115,86 L-114,86 L-114,84 L-113,84 L-113,83 L-112,83 L-112,81 L-111,81 L-111,80 L-110,80 L-110,78 L-109,78 L-109,77 L-108,77 L-108,75 L-107,75 L-107,74 L-106,74 L-106,73 L-105,73 L-105,71 L-104,71 L-104,70 L-103,70 L-103,69 L-102,69 L-102,67 L-101,67 L-101,66 L-100,66 L-100,65 L-99,65 L-99,64 L-98,64 L-98,63 L-97,63 L-97,61 L-96,61 L-96,60 L-95,60 L-95,59 L-94,59 L-94,58 L-93,58 L-93,57 L-92,57 L-92,56 L-91,56 L-91,55 L-90,55 L-90,54 L-89,54 L-89,53 L-88,53 L-88,52 L-87,52 L-87,51 L-86,51 L-86,50 L-85,50 L-85,49 L-84,49 L-84,48 L-83,48 L-83,47 L-82,47 L-82,46 L-81,46 L-81,45 L-80,45 L-80,44 L-79,44 L-79,43 L-77,43 L-77,42 L-76,42 L-76,41 L-75,41 L-75,40 L-74,40 L-74,39 L-73,39 L-73,38 L-71,38 L-71,37 L-70,37 L-70,36 L-69,36 L-69,35 L-68,35 L-68,34 L-66,34 L-66,33 L-65,33 L-65,32 L-63,32 L-63,31 L-62,31 L-62,30 L-60,30 L-60,29 L-59,29 L-59,28 L-58,28 L-58,27 L-56,27 L-56,26 L-55,26 L-55,25 L-53,25 L-53,24 L-51,24 L-51,23 L-50,23 L-50,22 L-48,22 L-48,21 L-46,21 L-46,20 L-44,20 L-44,19 L-43,19 L-43,18 L-41,18 L-41,17 L-39,17 L-39,16 L-37,16 L-37,15 L-35,15 L-35,14 L-33,14 L-33,13 L-31,13 L-31,12 L-28,12 L-28,11 L-26,11 L-26,10 L-24,10 L-24,9 L-22,9 L-22,8 L-19,8 L-19,7 L-16,7 L-16,6 L-14,6 L-14,5 L-11,5 L-11,4 L-9,4 L-9,3 L-6,3 L-6,2 L-3,2 L-3,1 L0,1 Z " transform="translate(1011,610)" style="fill: #1A6EB8;"/><path d="M0,0 L12,0 L12,1 L9,1 L9,2 L6,2 L6,3 L3,3 L3,4 L2,4 L2,5 L-2,5 L-2,6 L-7,6 L-7,7 L-10,7 L-10,8 L-13,8 L-13,9 L-16,9 L-16,10 L-18,10 L-18,11 L-21,11 L-21,12 L-23,12 L-23,13 L-26,13 L-26,14 L-28,14 L-28,15 L-30,15 L-30,16 L-32,16 L-32,17 L-34,17 L-34,18 L-36,18 L-36,19 L-38,19 L-38,20 L-40,20 L-40,21 L-41,21 L-41,22 L-43,22 L-43,23 L-45,23 L-45,24 L-46,24 L-46,25 L-48,25 L-48,26 L-50,26 L-50,27 L-51,27 L-51,28 L-53,28 L-53,29 L-55,29 L-55,30 L-56,30 L-56,31 L-58,31 L-58,32 L-59,32 L-59,33 L-61,33 L-61,34 L-62,34 L-62,35 L-64,35 L-64,36 L-65,36 L-65,37 L-67,37 L-67,38 L-68,38 L-68,39 L-69,39 L-69,40 L-71,40 L-71,41 L-72,41 L-72,42 L-74,42 L-74,43 L-75,43 L-75,44 L-76,44 L-76,45 L-77,45 L-77,46 L-78,46 L-78,47 L-80,47 L-80,48 L-81,48 L-81,49 L-82,49 L-82,50 L-83,50 L-83,51 L-84,51 L-84,52 L-85,52 L-85,53 L-87,53 L-87,54 L-88,54 L-88,55 L-89,55 L-89,56 L-90,56 L-90,57 L-91,57 L-91,58 L-92,58 L-92,59 L-93,59 L-93,60 L-94,60 L-94,61 L-95,61 L-95,62 L-96,62 L-96,63 L-97,63 L-97,64 L-98,64 L-98,65 L-99,65 L-99,66 L-100,66 L-100,68 L-101,68 L-101,69 L-102,69 L-102,70 L-103,70 L-103,71 L-104,71 L-104,72 L-105,72 L-105,73 L-106,73 L-106,75 L-107,75 L-107,76 L-108,76 L-108,77 L-109,77 L-109,79 L-110,79 L-110,80 L-111,80 L-111,81 L-112,81 L-112,82 L-113,82 L-113,84 L-114,84 L-114,85 L-115,85 L-115,87 L-116,87 L-116,88 L-117,88 L-117,89 L-118,89 L-118,91 L-119,91 L-119,93 L-120,93 L-120,94 L-121,94 L-121,96 L-122,96 L-122,97 L-123,97 L-123,98 L-124,98 L-124,101 L-125,101 L-125,102 L-126,102 L-126,104 L-127,104 L-127,106 L-128,106 L-128,107 L-129,107 L-129,109 L-130,109 L-130,111 L-131,111 L-131,113 L-132,113 L-132,115 L-133,115 L-133,117 L-134,117 L-134,119 L-135,119 L-135,121 L-136,121 L-136,123 L-137,123 L-137,127 L-138,127 L-138,130 L-139,130 L-139,131 L-140,131 L-140,133 L-141,133 L-141,137 L-142,137 L-142,139 L-143,139 L-143,143 L-144,143 L-144,145 L-145,145 L-145,149 L-146,149 L-146,153 L-147,153 L-147,154 L-148,154 L-148,159 L-149,159 L-149,162 L-150,162 L-150,167 L-151,167 L-151,173 L-152,173 L-152,180 L-153,180 L-153,184 L-154,184 L-154,189 L-155,189 L-155,195 L-156,195 L-156,205 L-157,205 L-157,221 L-158,221 L-158,224 L-159,224 L-159,225 L-160,225 L-160,226 L-161,226 L-161,227 L-162,227 L-162,230 L-163,230 L-163,231 L-164,231 L-164,232 L-165,232 L-165,234 L-166,234 L-166,235 L-167,235 L-167,236 L-168,236 L-168,238 L-169,238 L-169,239 L-170,239 L-170,241 L-171,241 L-171,242 L-172,242 L-172,244 L-173,244 L-173,245 L-174,245 L-174,247 L-175,247 L-175,248 L-176,248 L-176,250 L-177,250 L-177,252 L-178,252 L-178,253 L-179,253 L-179,255 L-180,255 L-180,257 L-181,257 L-181,258 L-182,258 L-182,261 L-183,261 L-183,262 L-184,262 L-184,264 L-185,264 L-185,266 L-186,266 L-186,268 L-187,268 L-187,271 L-188,271 L-188,273 L-189,273 L-189,274 L-190,274 L-190,277 L-191,277 L-191,279 L-192,279 L-192,281 L-193,281 L-193,283 L-194,283 L-194,287 L-195,287 L-195,288 L-196,288 L-196,292 L-197,292 L-197,293 L-198,293 L-198,296 L-199,296 L-199,297 L-200,297 L-200,299 L-201,299 L-201,303 L-202,303 L-202,305 L-203,305 L-203,307 L-204,307 L-204,312 L-205,312 L-205,315 L-206,315 L-206,317 L-207,317 L-207,320 L-208,320 L-208,323 L-209,323 L-209,327 L-210,327 L-210,330 L-211,330 L-211,335 L-212,335 L-212,338 L-213,338 L-213,344 L-214,344 L-214,348 L-215,348 L-215,353 L-216,353 L-216,357 L-217,357 L-217,365 L-218,365 L-218,373 L-219,373 L-219,381 L-220,381 L-220,391 L-221,391 L-221,432 L-220,432 L-220,443 L-219,443 L-219,453 L-218,453 L-218,461 L-217,461 L-217,467 L-216,467 L-216,471 L-215,471 L-215,477 L-214,477 L-214,481 L-213,481 L-213,487 L-212,487 L-212,489 L-211,489 L-211,494 L-210,494 L-210,497 L-209,497 L-209,501 L-208,501 L-208,504 L-207,504 L-207,509 L-206,509 L-206,510 L-205,510 L-205,514 L-204,514 L-204,517 L-203,517 L-203,520 L-202,520 L-202,522 L-201,522 L-201,525 L-200,525 L-200,527 L-199,527 L-199,530 L-198,530 L-198,533 L-197,533 L-197,535 L-196,535 L-196,537 L-195,537 L-195,540 L-194,540 L-194,542 L-193,542 L-193,544 L-192,544 L-192,548 L-191,548 L-191,549 L-190,549 L-190,550 L-189,550 L-189,552 L-188,552 L-188,554 L-187,554 L-187,557 L-186,557 L-186,558 L-185,558 L-185,560 L-184,560 L-184,562 L-183,562 L-183,565 L-182,565 L-182,566 L-181,566 L-181,568 L-180,568 L-180,570 L-179,570 L-179,572 L-178,572 L-178,574 L-177,574 L-177,576 L-176,576 L-176,577 L-175,577 L-175,579 L-174,579 L-174,581 L-173,581 L-173,582 L-172,582 L-172,584 L-171,584 L-171,585 L-170,585 L-170,587 L-169,587 L-169,589 L-168,589 L-168,590 L-167,590 L-167,592 L-166,592 L-166,593 L-165,593 L-165,595 L-164,595 L-164,596 L-163,596 L-163,598 L-162,598 L-162,599 L-161,599 L-161,600 L-160,600 L-160,602 L-159,602 L-159,603 L-158,603 L-158,605 L-157,605 L-157,606 L-156,606 L-156,607 L-155,607 L-155,609 L-154,609 L-154,610 L-153,610 L-153,611 L-152,611 L-152,612 L-151,612 L-151,614 L-150,614 L-150,615 L-149,615 L-149,616 L-148,616 L-148,618 L-147,618 L-147,619 L-146,619 L-146,620 L-145,620 L-145,621 L-144,621 L-144,622 L-143,622 L-143,623 L-142,623 L-142,624 L-141,624 L-141,626 L-140,626 L-140,627 L-139,627 L-139,628 L-138,628 L-138,629 L-137,629 L-137,630 L-136,630 L-136,631 L-135,631 L-135,632 L-134,632 L-134,634 L-133,634 L-133,635 L-132,635 L-132,636 L-131,636 L-131,637 L-130,637 L-130,638 L-129,638 L-129,639 L-128,639 L-128,640 L-127,640 L-127,641 L-126,641 L-126,642 L-125,642 L-125,643 L-124,643 L-124,644 L-123,644 L-123,645 L-122,645 L-122,646 L-121,646 L-121,647 L-120,647 L-120,648 L-119,648 L-119,649 L-118,649 L-118,650 L-117,650 L-117,651 L-116,651 L-116,652 L-115,652 L-115,653 L-113,653 L-113,654 L-112,654 L-112,655 L-111,655 L-111,656 L-110,656 L-110,657 L-109,657 L-109,658 L-108,658 L-108,659 L-107,659 L-107,660 L-105,660 L-105,661 L-104,661 L-104,662 L-103,662 L-103,663 L-102,663 L-102,664 L-101,664 L-101,665 L-99,665 L-99,666 L-98,666 L-98,667 L-97,667 L-97,668 L-96,668 L-96,669 L-95,669 L-95,670 L-93,670 L-93,671 L-92,671 L-92,672 L-91,672 L-91,673 L-90,673 L-90,674 L-88,674 L-88,675 L-87,675 L-87,676 L-86,676 L-86,677 L-84,677 L-84,678 L-83,678 L-83,679 L-82,679 L-82,680 L-80,680 L-80,681 L-79,681 L-79,682 L-77,682 L-77,683 L-76,683 L-76,684 L-75,684 L-75,685 L-73,685 L-73,686 L-72,686 L-72,687 L-70,687 L-70,688 L-68,688 L-68,689 L-67,689 L-67,690 L-65,690 L-65,691 L-64,691 L-64,692 L-62,692 L-62,693 L-61,693 L-61,694 L-59,694 L-59,695 L-57,695 L-57,696 L-55,696 L-55,697 L-54,697 L-54,698 L-52,698 L-52,699 L-50,699 L-50,700 L-48,700 L-48,701 L-47,701 L-47,702 L-45,702 L-45,703 L-43,703 L-43,704 L-41,704 L-41,705 L-39,705 L-39,706 L-37,706 L-37,707 L-35,707 L-35,708 L-33,708 L-33,709 L-31,709 L-31,710 L-29,710 L-29,711 L-27,711 L-27,712 L-25,712 L-25,713 L-23,713 L-23,714 L-21,714 L-21,715 L-18,715 L-18,716 L-16,716 L-16,717 L-14,717 L-14,718 L-11,718 L-11,719 L-9,719 L-9,720 L-6,720 L-6,721 L-4,721 L-4,722 L-1,722 L-1,723 L2,723 L2,724 L4,724 L4,725 L8,725 L8,726 L10,726 L10,727 L13,727 L13,728 L16,728 L16,729 L19,729 L19,730 L22,730 L22,731 L26,731 L26,732 L30,732 L30,733 L34,733 L34,734 L37,734 L37,735 L42,735 L42,736 L48,736 L48,737 L51,737 L51,738 L56,738 L56,739 L61,739 L61,740 L68,740 L68,741 L74,741 L74,742 L85,742 L85,743 L96,743 L96,744 L144,744 L144,743 L154,743 L154,742 L163,742 L163,741 L170,741 L170,740 L176,740 L176,739 L180,739 L180,738 L186,738 L186,737 L192,737 L192,736 L195,736 L195,735 L200,735 L200,734 L203,734 L203,733 L206,733 L206,732 L210,732 L210,731 L215,731 L215,730 L217,730 L217,729 L220,729 L220,728 L224,728 L224,727 L226,727 L226,726 L230,726 L230,725 L232,725 L232,724 L234,724 L234,723 L237,723 L237,722 L240,722 L240,721 L242,721 L242,720 L245,720 L245,719 L248,719 L248,718 L250,718 L250,717 L252,717 L252,716 L254,716 L254,715 L256,715 L256,714 L259,714 L259,713 L261,713 L261,712 L263,712 L263,711 L264,711 L264,710 L266,710 L266,709 L268,709 L268,708 L270,708 L270,707 L272,707 L272,706 L274,706 L274,705 L276,705 L276,704 L278,704 L278,703 L280,703 L280,702 L281,702 L281,701 L283,701 L283,700 L285,700 L285,699 L287,699 L287,698 L288,698 L288,697 L290,697 L290,696 L291,696 L291,695 L293,695 L293,694 L295,694 L295,693 L296,693 L296,692 L297,692 L297,691 L299,691 L299,690 L301,690 L301,689 L302,689 L302,688 L304,688 L304,687 L305,687 L305,686 L306,686 L306,685 L308,685 L308,684 L309,684 L309,683 L310,683 L310,682 L312,682 L312,681 L313,681 L313,680 L315,680 L315,679 L316,679 L316,678 L317,678 L317,677 L319,677 L319,676 L320,676 L320,675 L321,675 L321,674 L323,674 L323,673 L324,673 L324,672 L325,672 L325,671 L326,671 L326,670 L327,670 L327,669 L328,669 L328,668 L330,668 L330,667 L331,667 L331,666 L332,666 L332,665 L333,665 L333,664 L334,664 L334,663 L335,663 L335,662 L336,662 L336,661 L338,661 L338,660 L339,660 L339,659 L340,659 L340,658 L341,658 L341,657 L342,657 L342,656 L343,656 L343,655 L344,655 L344,654 L345,654 L345,653 L346,653 L346,652 L347,652 L347,651 L348,651 L348,650 L349,650 L349,649 L350,649 L350,648 L351,648 L351,647 L352,647 L352,646 L353,646 L353,645 L354,645 L354,644 L355,644 L355,643 L356,643 L356,642 L357,642 L357,641 L358,641 L358,640 L359,640 L359,639 L360,639 L360,638 L361,638 L361,637 L362,637 L362,635 L363,635 L363,634 L364,634 L364,633 L365,633 L365,632 L366,632 L366,631 L367,631 L367,630 L368,630 L368,628 L369,628 L369,627 L370,627 L370,626 L371,626 L371,628 L370,628 L370,629 L369,629 L369,631 L368,631 L368,632 L367,632 L367,633 L366,633 L366,635 L365,635 L365,636 L364,636 L364,638 L363,638 L363,639 L362,639 L362,640 L361,640 L361,642 L360,642 L360,643 L359,643 L359,645 L358,645 L358,646 L357,646 L357,647 L356,647 L356,648 L355,648 L355,650 L354,650 L354,651 L353,651 L353,653 L352,653 L352,654 L351,654 L351,655 L350,655 L350,657 L349,657 L349,658 L348,658 L348,659 L347,659 L347,661 L346,661 L346,662 L345,662 L345,663 L344,663 L344,664 L343,664 L343,666 L342,666 L342,667 L341,667 L341,668 L340,668 L340,669 L339,669 L339,670 L338,670 L338,672 L337,672 L337,673 L336,673 L336,674 L335,674 L335,675 L334,675 L334,677 L333,677 L333,678 L332,678 L332,679 L331,679 L331,680 L330,680 L330,681 L329,681 L329,682 L328,682 L328,684 L327,684 L327,685 L326,685 L326,686 L325,686 L325,687 L324,687 L324,688 L323,688 L323,689 L322,689 L322,690 L321,690 L321,691 L320,691 L320,692 L319,692 L319,693 L318,693 L318,694 L317,694 L317,695 L316,695 L316,696 L315,696 L315,697 L314,697 L314,698 L313,698 L313,699 L312,699 L312,700 L311,700 L311,701 L310,701 L310,702 L309,702 L309,703 L308,703 L308,704 L307,704 L307,705 L306,705 L306,706 L305,706 L305,707 L304,707 L304,708 L303,708 L303,709 L302,709 L302,710 L301,710 L301,711 L300,711 L300,712 L299,712 L299,713 L298,713 L298,714 L296,714 L296,715 L295,715 L295,716 L294,716 L294,717 L293,717 L293,718 L292,718 L292,719 L291,719 L291,720 L290,720 L290,721 L288,721 L288,722 L287,722 L287,723 L286,723 L286,724 L285,724 L285,725 L283,725 L283,726 L282,726 L282,727 L281,727 L281,728 L280,728 L280,729 L278,729 L278,730 L277,730 L277,731 L276,731 L276,732 L274,732 L274,733 L273,733 L273,734 L272,734 L272,735 L271,735 L271,736 L269,736 L269,737 L268,737 L268,738 L266,738 L266,739 L265,739 L265,740 L264,740 L264,741 L262,741 L262,742 L261,742 L261,743 L259,743 L259,744 L258,744 L258,745 L257,745 L257,746 L255,746 L255,747 L253,747 L253,748 L252,748 L252,749 L251,749 L251,750 L249,750 L249,751 L248,751 L248,752 L246,752 L246,753 L244,753 L244,754 L243,754 L243,755 L241,755 L241,756 L240,756 L240,757 L238,757 L238,758 L237,758 L237,759 L235,759 L235,760 L233,760 L233,761 L231,761 L231,762 L229,762 L229,763 L228,763 L228,764 L226,764 L226,765 L224,765 L224,766 L222,766 L222,767 L221,767 L221,768 L219,768 L219,769 L217,769 L217,770 L216,770 L216,771 L214,771 L214,772 L212,772 L212,773 L210,773 L210,774 L208,774 L208,775 L206,775 L206,776 L204,776 L204,777 L202,777 L202,778 L200,778 L200,779 L198,779 L198,780 L196,780 L196,781 L193,781 L193,782 L191,782 L191,783 L189,783 L189,784 L187,784 L187,785 L184,785 L184,786 L182,786 L182,787 L180,787 L180,788 L177,788 L177,789 L174,789 L174,790 L172,790 L172,791 L169,791 L169,792 L166,792 L166,793 L164,793 L164,794 L161,794 L161,795 L158,795 L158,796 L155,796 L155,797 L152,797 L152,798 L148,798 L148,799 L146,799 L146,800 L142,800 L142,801 L140,801 L140,802 L136,802 L136,803 L131,803 L131,804 L128,804 L128,805 L125,805 L125,806 L120,806 L120,807 L116,807 L116,808 L112,808 L112,809 L106,809 L106,810 L100,810 L100,811 L96,811 L96,812 L90,812 L90,813 L84,813 L84,814 L74,814 L74,815 L64,815 L64,816 L48,816 L48,817 L16,817 L16,816 L5,816 L5,815 L-13,815 L-13,814 L-22,814 L-22,813 L-29,813 L-29,812 L-37,812 L-37,811 L-42,811 L-42,810 L-48,810 L-48,809 L-52,809 L-52,808 L-56,808 L-56,807 L-62,807 L-62,806 L-66,806 L-66,805 L-68,805 L-68,804 L-72,804 L-72,803 L-77,803 L-77,802 L-80,802 L-80,801 L-84,801 L-84,800 L-88,800 L-88,799 L-91,799 L-91,798 L-93,798 L-93,797 L-96,797 L-96,796 L-100,796 L-100,795 L-102,795 L-102,794 L-106,794 L-106,793 L-109,793 L-109,792 L-110,792 L-110,791 L-114,791 L-114,790 L-117,790 L-117,789 L-120,789 L-120,788 L-122,788 L-122,787 L-125,787 L-125,786 L-127,786 L-127,785 L-129,785 L-129,784 L-132,784 L-132,783 L-134,783 L-134,782 L-136,782 L-136,781 L-139,781 L-139,780 L-141,780 L-141,779 L-144,779 L-144,778 L-145,778 L-145,777 L-147,777 L-147,776 L-149,776 L-149,775 L-152,775 L-152,774 L-154,774 L-154,773 L-156,773 L-156,772 L-158,772 L-158,771 L-159,771 L-159,770 L-161,770 L-161,769 L-163,769 L-163,768 L-165,768 L-165,767 L-166,767 L-166,766 L-168,766 L-168,765 L-170,765 L-170,764 L-172,764 L-172,763 L-174,763 L-174,762 L-176,762 L-176,761 L-177,761 L-177,760 L-179,760 L-179,759 L-181,759 L-181,758 L-183,758 L-183,757 L-184,757 L-184,756 L-186,756 L-186,755 L-188,755 L-188,754 L-189,754 L-189,753 L-191,753 L-191,752 L-192,752 L-192,751 L-194,751 L-194,750 L-195,750 L-195,749 L-197,749 L-197,748 L-198,748 L-198,747 L-200,747 L-200,746 L-201,746 L-201,745 L-203,745 L-203,744 L-204,744 L-204,743 L-206,743 L-206,742 L-207,742 L-207,741 L-208,741 L-208,740 L-210,740 L-210,739 L-211,739 L-211,738 L-213,738 L-213,737 L-214,737 L-214,736 L-215,736 L-215,735 L-217,735 L-217,734 L-218,734 L-218,733 L-219,733 L-219,732 L-221,732 L-221,731 L-222,731 L-222,730 L-223,730 L-223,729 L-224,729 L-224,728 L-226,728 L-226,727 L-227,727 L-227,726 L-228,726 L-228,725 L-229,725 L-229,724 L-231,724 L-231,723 L-232,723 L-232,722 L-233,722 L-233,721 L-234,721 L-234,720 L-235,720 L-235,719 L-236,719 L-236,718 L-237,718 L-237,717 L-239,717 L-239,716 L-240,716 L-240,715 L-241,715 L-241,714 L-242,714 L-242,713 L-243,713 L-243,712 L-245,712 L-245,711 L-246,711 L-246,710 L-247,710 L-247,709 L-248,709 L-248,708 L-249,708 L-249,707 L-250,707 L-250,706 L-251,706 L-251,705 L-252,705 L-252,704 L-253,704 L-253,703 L-254,703 L-254,702 L-255,702 L-255,701 L-256,701 L-256,700 L-257,700 L-257,699 L-258,699 L-258,698 L-259,698 L-259,697 L-260,697 L-260,696 L-261,696 L-261,695 L-262,695 L-262,694 L-263,694 L-263,693 L-264,693 L-264,692 L-265,692 L-265,691 L-266,691 L-266,690 L-267,690 L-267,689 L-268,689 L-268,688 L-269,688 L-269,687 L-270,687 L-270,686 L-271,686 L-271,685 L-272,685 L-272,684 L-273,684 L-273,682 L-274,682 L-274,681 L-275,681 L-275,680 L-276,680 L-276,679 L-277,679 L-277,678 L-278,678 L-278,677 L-279,677 L-279,676 L-280,676 L-280,675 L-281,675 L-281,674 L-282,674 L-282,672 L-283,672 L-283,671 L-284,671 L-284,670 L-285,670 L-285,669 L-286,669 L-286,667 L-287,667 L-287,666 L-288,666 L-288,665 L-289,665 L-289,664 L-290,664 L-290,663 L-291,663 L-291,662 L-292,662 L-292,660 L-293,660 L-293,659 L-294,659 L-294,657 L-295,657 L-295,656 L-296,656 L-296,655 L-297,655 L-297,654 L-298,654 L-298,652 L-299,652 L-299,651 L-300,651 L-300,650 L-301,650 L-301,648 L-302,648 L-302,647 L-303,647 L-303,646 L-304,646 L-304,644 L-305,644 L-305,643 L-306,643 L-306,641 L-307,641 L-307,640 L-308,640 L-308,638 L-309,638 L-309,637 L-310,637 L-310,635 L-311,635 L-311,634 L-312,634 L-312,632 L-313,632 L-313,631 L-314,631 L-314,629 L-315,629 L-315,627 L-316,627 L-316,626 L-317,626 L-317,624 L-318,624 L-318,623 L-319,623 L-319,621 L-320,621 L-320,620 L-321,620 L-321,618 L-322,618 L-322,616 L-323,616 L-323,615 L-324,615 L-324,613 L-325,613 L-325,611 L-326,611 L-326,609 L-327,609 L-327,608 L-328,608 L-328,605 L-329,605 L-329,604 L-330,604 L-330,602 L-331,602 L-331,600 L-332,600 L-332,598 L-333,598 L-333,597 L-334,597 L-334,595 L-335,595 L-335,593 L-336,593 L-336,591 L-337,591 L-337,589 L-338,589 L-338,586 L-339,586 L-339,584 L-340,584 L-340,582 L-341,582 L-341,580 L-342,580 L-342,578 L-343,578 L-343,576 L-344,576 L-344,573 L-345,573 L-345,571 L-346,571 L-346,568 L-347,568 L-347,566 L-348,566 L-348,564 L-349,564 L-349,561 L-350,561 L-350,559 L-351,559 L-351,557 L-352,557 L-352,554 L-353,554 L-353,551 L-354,551 L-354,549 L-355,549 L-355,545 L-356,545 L-356,542 L-357,542 L-357,539 L-358,539 L-358,536 L-359,536 L-359,533 L-360,533 L-360,530 L-361,530 L-361,528 L-362,528 L-362,523 L-363,523 L-363,519 L-364,519 L-364,515 L-365,515 L-365,512 L-366,512 L-366,509 L-367,509 L-367,504 L-368,504 L-368,501 L-369,501 L-369,496 L-370,496 L-370,490 L-371,490 L-371,485 L-372,485 L-372,479 L-373,479 L-373,474 L-374,474 L-374,469 L-375,469 L-375,461 L-376,461 L-376,453 L-377,453 L-377,441 L-378,441 L-378,427 L-379,427 L-379,386 L-378,386 L-378,373 L-377,373 L-377,365 L-376,365 L-376,354 L-375,354 L-375,349 L-374,349 L-374,341 L-373,341 L-373,336 L-372,336 L-372,329 L-371,329 L-371,325 L-370,325 L-370,319 L-369,319 L-369,317 L-368,317 L-368,312 L-367,312 L-367,307 L-366,307 L-366,305 L-365,305 L-365,301 L-364,301 L-364,296 L-363,296 L-363,293 L-362,293 L-362,290 L-361,290 L-361,287 L-360,287 L-360,282 L-359,282 L-359,280 L-358,280 L-358,277 L-357,277 L-357,274 L-356,274 L-356,272 L-355,272 L-355,268 L-354,268 L-354,266 L-353,266 L-353,263 L-352,263 L-352,261 L-351,261 L-351,258 L-350,258 L-350,256 L-349,256 L-349,253 L-348,253 L-348,252 L-347,252 L-347,250 L-346,250 L-346,247 L-345,247 L-345,245 L-344,245 L-344,241 L-343,241 L-343,240 L-342,240 L-342,237 L-341,237 L-341,235 L-340,235 L-340,233 L-339,233 L-339,231 L-338,231 L-338,229 L-337,229 L-337,227 L-336,227 L-336,225 L-335,225 L-335,223 L-334,223 L-334,221 L-333,221 L-333,219 L-332,219 L-332,217 L-331,217 L-331,215 L-330,215 L-330,213 L-329,213 L-329,211 L-328,211 L-328,209 L-327,209 L-327,208 L-326,208 L-326,206 L-325,206 L-325,205 L-324,205 L-324,203 L-323,203 L-323,201 L-322,201 L-322,199 L-321,199 L-321,198 L-320,198 L-320,196 L-319,196 L-319,194 L-318,194 L-318,193 L-317,193 L-317,191 L-316,191 L-316,189 L-315,189 L-315,188 L-314,188 L-314,186 L-313,186 L-313,185 L-312,185 L-312,184 L-311,184 L-311,182 L-310,182 L-310,180 L-309,180 L-309,179 L-308,179 L-308,178 L-307,178 L-307,176 L-306,176 L-306,175 L-305,175 L-305,173 L-304,173 L-304,172 L-303,172 L-303,171 L-302,171 L-302,169 L-301,169 L-301,168 L-300,168 L-300,166 L-299,166 L-299,165 L-298,165 L-298,164 L-297,164 L-297,162 L-296,162 L-296,161 L-295,161 L-295,160 L-294,160 L-294,158 L-293,158 L-293,157 L-292,157 L-292,156 L-291,156 L-291,155 L-290,155 L-290,153 L-289,153 L-289,152 L-288,152 L-288,151 L-287,151 L-287,150 L-286,150 L-286,149 L-285,149 L-285,148 L-284,148 L-284,146 L-283,146 L-283,145 L-282,145 L-282,144 L-281,144 L-281,143 L-280,143 L-280,141 L-279,141 L-279,140 L-278,140 L-278,139 L-277,139 L-277,138 L-276,138 L-276,137 L-275,137 L-275,136 L-274,136 L-274,135 L-273,135 L-273,134 L-272,134 L-272,133 L-271,133 L-271,132 L-270,132 L-270,130 L-269,130 L-269,129 L-268,129 L-268,128 L-267,128 L-267,127 L-266,127 L-266,126 L-265,126 L-265,125 L-264,125 L-264,124 L-263,124 L-263,123 L-262,123 L-262,122 L-261,122 L-261,121 L-260,121 L-260,120 L-258,120 L-258,119 L-257,119 L-257,118 L-256,118 L-256,117 L-255,117 L-255,116 L-254,116 L-254,115 L-253,115 L-253,114 L-252,114 L-252,113 L-251,113 L-251,112 L-250,112 L-250,111 L-249,111 L-249,110 L-248,110 L-248,109 L-247,109 L-247,108 L-246,108 L-246,107 L-244,107 L-244,106 L-243,106 L-243,105 L-242,105 L-242,104 L-241,104 L-241,103 L-240,103 L-240,102 L-239,102 L-239,101 L-238,101 L-238,100 L-237,100 L-237,99 L-236,99 L-236,98 L-234,98 L-234,97 L-233,97 L-233,96 L-232,96 L-232,95 L-231,95 L-231,94 L-230,94 L-230,93 L-228,93 L-228,92 L-227,92 L-227,91 L-226,91 L-226,90 L-225,90 L-225,89 L-223,89 L-223,88 L-222,88 L-222,87 L-221,87 L-221,86 L-219,86 L-219,85 L-218,85 L-218,83 L-216,83 L-216,82 L-214,82 L-214,81 L-213,81 L-213,80 L-211,80 L-211,79 L-210,79 L-210,78 L-208,78 L-208,77 L-207,77 L-207,76 L-206,76 L-206,75 L-205,75 L-205,74 L-203,74 L-203,73 L-201,73 L-201,72 L-200,72 L-200,71 L-199,71 L-199,70 L-197,70 L-197,69 L-196,69 L-196,68 L-194,68 L-194,67 L-193,67 L-193,66 L-191,66 L-191,65 L-189,65 L-189,64 L-188,64 L-188,63 L-186,63 L-186,62 L-184,62 L-184,61 L-183,61 L-183,60 L-181,60 L-181,59 L-180,59 L-180,58 L-178,58 L-178,57 L-176,57 L-176,56 L-175,56 L-175,55 L-173,55 L-173,54 L-171,54 L-171,53 L-169,53 L-169,52 L-167,52 L-167,51 L-165,51 L-165,50 L-164,50 L-164,49 L-162,49 L-162,48 L-159,48 L-159,47 L-157,47 L-157,46 L-156,46 L-156,45 L-154,45 L-154,44 L-152,44 L-152,43 L-150,43 L-150,42 L-148,42 L-148,41 L-146,41 L-146,40 L-144,40 L-144,39 L-141,39 L-141,38 L-139,38 L-139,37 L-136,37 L-136,36 L-135,36 L-135,35 L-132,35 L-132,34 L-130,34 L-130,33 L-128,33 L-128,32 L-125,32 L-125,31 L-123,31 L-123,30 L-120,30 L-120,29 L-118,29 L-118,28 L-115,28 L-115,27 L-112,27 L-112,26 L-109,26 L-109,25 L-107,25 L-107,24 L-104,24 L-104,23 L-102,23 L-102,22 L-99,22 L-99,21 L-96,21 L-96,20 L-93,20 L-93,19 L-90,19 L-90,18 L-86,18 L-86,17 L-83,17 L-83,16 L-80,16 L-80,15 L-76,15 L-76,14 L-72,14 L-72,13 L-69,13 L-69,12 L-64,12 L-64,11 L-61,11 L-61,10 L-56,10 L-56,9 L-52,9 L-52,8 L-48,8 L-48,7 L-42,7 L-42,6 L-34,6 L-34,5 L-29,5 L-29,4 L-24,4 L-24,3 L-18,3 L-18,2 L-8,2 L-8,1 L0,1 Z " transform="translate(992,611)" style="fill: #FAB51C;"/></svg>