<?xml version="1.0" encoding="utf-8"?>
<svg version="1.1" id="Layer_1" xmlns="http://www.w3.org/2000/svg" x="0px" y="0px" width="100%" viewBox="0 0 768 1024" enable-background="new 0 0 768 1024" xmlns:bx="https://boxy-svg.com">
  <defs>
    <bx:export>
      <bx:file format="svg" href="#object-0"/>
      <bx:file format="svg" href="#object-1" path="Untitled 2.svg"/>
    </bx:export>
  </defs>
  <path opacity="1.000000" stroke="none" d=" M273.597504,616.430237 C249.099777,594.865540 232.181580,568.690552 222.634933,537.953552 C216.469070,518.101562 214.508820,497.640411 215.528549,476.796661 C216.734741,452.141510 222.319565,428.673187 233.582825,406.762939 C251.592972,371.728058 278.760620,346.110260 314.779633,330.084229 C345.848206,316.260803 378.465790,310.930847 411.889862,317.117767 C480.517975,329.820984 526.522156,369.403687 548.496399,436.104492 C549.262756,438.430634 550.126587,440.803589 549.756653,443.560089 C547.645142,443.660400 547.369202,441.899963 546.877380,440.731659 C537.607422,418.708862 521.785278,402.287415 501.867157,389.933502 C468.064850,368.968201 431.839630,363.832397 394.117950,377.315308 C358.171265,390.163788 333.740540,415.368469 323.939148,452.272858 C313.380219,492.029633 322.781921,527.201843 354.479309,554.927429 C361.506805,561.074402 369.851440,565.410950 378.591034,568.848022 C380.225403,569.490723 382.222778,569.561523 384.116730,572.742798 C342.294342,575.353271 303.989258,565.415405 266.795837,549.097107 C269.569336,554.038574 273.750732,557.318237 277.953888,560.429077 C302.381470,578.508362 329.013275,592.194519 358.209656,600.935608 C381.185333,607.814209 404.538666,612.397644 428.513092,610.547852 C464.641907,607.760254 496.150879,594.875305 519.010742,565.234436 C523.600525,559.283203 527.208496,552.694885 530.394653,545.889221 C531.076721,544.432251 531.241638,542.620483 533.116089,542.048279 C534.321350,542.398132 534.075562,543.341919 533.959412,544.092651 C528.501770,579.358154 511.295685,607.371094 481.848877,627.599060 C439.288177,656.835449 392.520203,664.673889 342.693573,652.861328 C316.913025,646.749451 294.036926,634.003784 273.597504,616.430237 z" style="fill: rgba(239, 239, 9, 0.69);" id="object-0"/>
  <path opacity="1.000000" stroke="none" d=" M351.209015,509.644226 C336.174255,480.348877 340.195343,452.757538 358.411835,427.041016 C373.966797,405.081757 396.236511,393.241486 422.655121,389.744263 C466.942383,383.881622 502.731812,399.743652 530.304260,434.217804 C542.605835,449.598633 549.109619,467.712036 551.415588,487.364410 C554.321411,512.128845 550.658447,535.772400 540.208130,558.379395 C539.356689,560.221252 538.814331,562.406372 535.809937,563.611084 C536.699280,560.641296 537.485962,558.343323 538.075806,555.995972 C548.803589,513.303467 531.150513,469.801270 490.486877,450.231293 C466.471100,438.673431 441.684998,437.716400 417.745178,451.802246 C414.762299,453.557373 411.645477,455.231842 409.843170,458.341888 C410.125153,460.526093 411.816437,461.097778 413.336609,461.611664 C429.383820,467.036011 437.254669,481.479370 436.262726,498.002167 C435.314301,513.800232 424.258759,527.538513 408.589355,532.402405 C386.552216,539.242981 364.668701,530.652405 351.209015,509.644226 z" style="fill: rgba(36, 136, 239, 0.69);" id="object-1"/>
</svg>